inDegrees=yes
name=ik_S57_A09_T01
DataType=double
version=3
OpenSimVersion=4.3-2021-08-27-4bc7ad9
endheader
time	pelvis_tilt	pelvis_list	pelvis_rotation	pelvis_tx	pelvis_ty	pelvis_tz	hip_flexion_r	hip_adduction_r	hip_rotation_r	knee_angle_r	knee_angle_r_beta	ankle_angle_r	subtalar_angle_r	mtp_angle_r	hip_flexion_l	hip_adduction_l	hip_rotation_l	knee_angle_l	knee_angle_l_beta	ankle_angle_l	subtalar_angle_l	mtp_angle_l	lumbar_extension	lumbar_bending	lumbar_rotation	arm_flex_r	arm_add_r	arm_rot_r	elbow_flex_r	pro_sup_r	wrist_flex_r	wrist_dev_r	arm_flex_l	arm_add_l	arm_rot_l	elbow_flex_l	pro_sup_l	wrist_flex_l	wrist_dev_l
9.899999999999878	-7.793287226827461	-5.464092725940097	27.32840664071212	0	0.9399999999999999	0	39.74797340705015	-11.88726281324879	-10.41472232041843	54.72924627002121	0.9552055445466957	0	0	0	39.74797340705015	-11.88726281324879	-10.41472232041843	54.72924627002121	0.9552055445466957	0	0	0	-8.389052665655488	-4.767128629980571	-0.1457799317095644	54.8753707317112	9.250300503296305	0.8038597715143254	57.55200118441282	112.4736504743895	0	0	74.91808027447367	-36.48704819692514	38.67312136922867	18.0404242326749	79.15445762958336	0	0
9.919999999999877	-7.845405367625693	-5.529066040172189	27.05110723919732	0	0.9399999999999999	0	39.75069738782515	-11.88385479707671	-10.41424284824632	54.72933991367009	0.9552071789366922	0	0	0	39.75069738782515	-11.88385479707671	-10.41424284824632	54.72933991367009	0.9552071789366922	0	0	0	-8.466325863200973	-4.797052812809662	-0.1529074447826827	54.89407719655298	9.336728668841371	0.9294065998156608	57.76818278596856	112.4790456974074	0	0	75.84703861155404	-36.42939947535601	39.54141317114748	16.72340332553186	78.55193613054898	0	0
9.939999999999877	-7.912720243344238	-5.615453653571968	26.82974435790986	0	0.9399999999999999	0	39.75371399780809	-11.8800789193076	-10.41371158131798	54.72944345182828	0.9552089860184541	0	0	0	39.75371399780809	-11.8800789193076	-10.41371158131798	54.72944345182828	0.9552089860184541	0	0	0	-8.571901830283176	-4.827638043539525	-0.2173827275386974	54.94975008230841	9.496754206471318	1.001212417643539	57.94842754577099	112.4170029585576	0	0	76.35781402628315	-36.48087575359916	39.90814916743733	15.80094728130419	78.51077254974945	0	0
9.959999999999877	-7.96729645002404	-5.695097387893525	26.60366133080014	0	0.9399999999999999	0	39.75505885452327	-11.87841538028279	-10.41347651753427	54.72949008461292	0.9552097999140854	0	0	0	39.75505885452327	-11.87841538028279	-10.41347651753427	54.72949008461292	0.9552097999140854	0	0	0	-8.665588719126593	-4.853353440565868	-0.311621248137718	54.97713891464472	9.664868865628398	1.088208000687928	58.12983220954154	112.3421776506892	0	0	76.4949548786813	-36.80620851483297	39.8740190729138	15.26568357095114	79.00719601404219	0	0
9.979999999999876	-8.036006240626588	-5.761243565091067	26.37244321210565	0	0.9399999999999999	0	39.7577224367875	-11.87508467999948	-10.41300757816831	54.72958144856202	0.9552113945158147	0	0	0	39.7577224367875	-11.87508467999948	-10.41300757816831	54.72958144856202	0.9552113945158147	0	0	0	-8.761986338755046	-4.869232447346629	-0.3619757267231035	55.03653418807156	9.785949178425893	1.111746595993623	58.27823664124328	112.3143889613065	0	0	77.14391609974376	-36.71123354836651	40.65648414316903	14.39118015501518	78.89945867978106	0	0
9.999999999999876	-8.089407706884256	-5.831582924188514	26.16220368195017	0	0.9399999999999999	0	39.76010001416357	-11.87211891103076	-10.41258957935136	54.72966311031941	0.9552128197823542	0	0	0	39.76010001416357	-11.87211891103076	-10.41258957935136	54.72966311031941	0.9552128197823542	0	0	0	-8.847470847959841	-4.894055832004478	-0.4249418110187821	55.12111868746053	9.909988079621783	1.102052126202317	58.38758308538689	112.3588655966988	0	0	77.49395414865452	-36.8244024971632	41.05006113924669	13.58698968580263	79.40204313114312	0	0
10.01999999999988	-8.138745186475623	-5.885043176970798	25.90622633444309	0	0.9399999999999999	0	39.76138298352986	-11.87052474173383	-10.4123645677979	54.72970731234062	0.9552135912531604	0	0	0	39.76138298352986	-11.87052474173383	-10.4123645677979	54.72970731234062	0.9552135912531604	0	0	0	-8.926377335783974	-4.896736124798573	-0.5340117635661977	55.17209028394738	10.08377664529982	1.244093525018155	58.49833310678646	112.3295638503809	0	0	77.69111151838578	-36.98724827741056	41.30166959092024	12.94883650464736	79.64336228237528	0	0
